<?xml version="1.0" encoding="UTF-8"?>
<!DOCTYPE svg PUBLIC "-//W3C//DTD SVG 1.1//EN" "http://www.w3.org/Graphics/SVG/1.1/DTD/svg11.dtd">
<svg version="1.1" xmlns="http://www.w3.org/2000/svg" xmlns:xlink="http://www.w3.org/1999/xlink" x="0" y="0" width="520.467" height="789.057" viewBox="0, 0, 520.467, 789.057">
  <g id="Layer_1">
    <g id="path876">
      <path d="M120.629,787.461 L104.138,778.55 L355.504,302.815 L369.336,313.189 z" fill="#E6E6E6"/>
      <path d="M120.629,787.461 L104.138,778.55 L355.504,302.815 L369.336,313.189 z" fill-opacity="0" stroke="#000000" stroke-width="1"/>
    </g>
    <g id="path874">
      <path d="M71.154,752.349 L55.061,744.369 L306.96,267.172 L320.526,277.413 z" fill="#E6E6E6"/>
      <path d="M71.154,752.349 L55.061,744.369 L306.96,267.172 L320.526,277.413 z" fill-opacity="0" stroke="#000000" stroke-width="1"/>
    </g>
    <g id="path872">
      <path d="M16.625,715.243 L1.596,707.13 L253.494,230.066 L266.661,241.636 z" fill="#E6E6E6"/>
      <path d="M16.625,715.243 L1.596,707.13 L253.494,230.066 L266.661,241.636 z" fill-opacity="0" stroke="#000000" stroke-width="1"/>
    </g>
  </g>
  <g id="layer1">
    <path d="M258.711,220.243 L258.711,220.243 L274.147,228.384 C275.049,228.859 275.395,229.977 274.919,230.879 L274.919,230.879 L18.918,716.39 C18.442,717.293 17.325,717.639 16.423,717.163 L16.423,717.163 L0.986,709.025 C0.552,708.796 0.228,708.405 0.083,707.937 C-0.062,707.469 -0.015,706.962 0.213,706.529 L0.213,706.529 L256.215,221.016 C256.443,220.582 256.835,220.258 257.303,220.113 C257.771,219.968 258.277,220.015 258.711,220.243 L258.711,220.243 M256.987,223.512 L259.483,222.739 L3.481,708.252 L2.709,705.756 L18.146,713.895 L15.65,714.667 L271.651,229.156 L272.423,231.652 z" fill="#000000" id="path966"/>
    <path d="M257.849,220.03 C257.666,220.03 257.481,220.058 257.303,220.113 C256.835,220.258 256.443,220.582 256.215,221.016 L248.595,235.467 L251.665,237.567 L255.512,230.27 L258.622,224.373 L258.622,224.374 L251.665,237.567 L263.093,245.386 L266.162,247.486 L274.919,230.879 C274.978,230.767 275.025,230.651 275.059,230.534 L264.449,223.269 L258.711,220.243 C258.443,220.102 258.147,220.03 257.849,220.03 z" fill="#000000" id="path970"/>
    <path d="M275.108,232.362 L275.108,232.362 L20.4,715.942 C19.669,717.331 17.95,717.863 16.562,717.132 C15.174,716.401 14.641,714.682 15.372,713.294 L15.372,713.294 L270.08,229.714 C270.811,228.326 272.529,227.793 273.918,228.524 C275.306,229.256 275.839,230.974 275.108,232.362 z" fill="#000000" id="path974"/>
    <g id="g990">
      <path d="M312.047,257.194 L312.047,257.194 L327.483,265.335 C328.386,265.81 328.732,266.928 328.256,267.83 L328.256,267.83 L72.255,753.341 C71.779,754.244 70.662,754.59 69.759,754.114 L69.759,754.114 L54.323,745.976 C53.889,745.747 53.564,745.356 53.419,744.888 C53.274,744.42 53.322,743.913 53.55,743.48 L53.55,743.48 L309.552,257.967 C309.78,257.533 310.172,257.208 310.64,257.064 C311.108,256.919 311.614,256.966 312.047,257.194 L312.047,257.194 M310.324,260.462 L312.82,259.69 L56.818,745.203 L56.046,742.707 L71.482,750.846 L68.987,751.618 L324.988,266.107 L325.76,268.603 z" fill="#000000" id="path978"/>
      <path d="M311.186,256.981 C311.002,256.981 310.818,257.008 310.64,257.064 C310.172,257.209 309.78,257.533 309.552,257.967 L301.932,272.417 L305.002,274.518 L308.849,267.221 L311.958,261.324 L311.958,261.325 L305.002,274.518 L316.43,282.337 L319.499,284.437 L328.256,267.83 C328.315,267.718 328.362,267.602 328.396,267.484 L317.785,260.22 L312.047,257.194 C311.779,257.053 311.483,256.981 311.186,256.981 z" fill="#000000" id="path982"/>
      <path d="M328.444,269.313 L328.444,269.313 L73.737,752.893 C73.005,754.281 71.287,754.814 69.899,754.083 C68.51,753.352 67.978,751.633 68.709,750.245 L68.709,750.245 L323.417,266.665 C324.148,265.277 325.866,264.744 327.255,265.475 C328.643,266.207 329.176,267.925 328.444,269.313 z" fill="#000000" id="path986"/>
    </g>
    <path d="M361.376,291.84 L361.376,291.84 L376.812,299.98 C377.715,300.456 378.06,301.574 377.585,302.476 L377.585,302.476 L121.584,787.987 C121.108,788.89 119.991,789.236 119.088,788.76 L119.088,788.76 L103.652,780.621 C103.218,780.393 102.893,780.001 102.748,779.533 C102.603,779.065 102.65,778.559 102.879,778.126 L102.879,778.126 L358.881,292.613 C359.109,292.179 359.5,291.854 359.969,291.71 C360.437,291.565 360.943,291.612 361.376,291.84 L361.376,291.84 M359.653,295.108 L362.149,294.336 L106.147,779.849 L105.375,777.353 L120.811,785.491 L118.316,786.264 L374.316,300.753 L375.089,303.248 z" fill="#000000" id="path992"/>
    <path d="M360.515,291.627 C360.331,291.627 360.147,291.654 359.969,291.71 C359.5,291.854 359.109,292.179 358.881,292.613 L351.261,307.063 L354.33,309.163 L358.178,301.867 L361.287,295.97 L361.287,295.971 L354.331,309.164 L365.759,316.983 L368.828,319.083 L377.585,302.476 C377.644,302.364 377.69,302.248 377.725,302.13 L367.114,294.866 L361.376,291.84 C361.108,291.699 360.812,291.627 360.515,291.627 z" fill="#000000" id="path996"/>
    <path d="M377.773,303.959 L377.773,303.959 L123.066,787.539 C122.334,788.927 120.616,789.46 119.228,788.729 C117.839,787.997 117.306,786.279 118.038,784.891 L118.038,784.891 L372.745,301.311 C373.477,299.923 375.195,299.39 376.583,300.121 C377.972,300.852 378.505,302.571 377.773,303.959 z" fill="#000000" id="path1000"/>
    <path d="M287.82,47.219 L287.82,47.219 L214.269,194.75 L213.466,191.565 L367.544,300.338 L363.892,301.16 L450.06,148.107 L450.93,151.488 L284.236,48.238 L287.82,47.219 M283.307,44.969 C283.623,44.335 284.192,43.863 284.875,43.669 C285.557,43.475 286.289,43.577 286.892,43.951 L286.892,43.951 L453.585,147.201 C454.734,147.912 455.118,149.404 454.455,150.581 L454.455,150.581 L368.287,303.635 C367.937,304.256 367.34,304.701 366.644,304.857 C365.948,305.014 365.218,304.869 364.635,304.457 L364.635,304.457 L210.558,195.685 C209.541,194.967 209.2,193.614 209.756,192.5 L209.756,192.5 z" fill="#000000" id="path1004"/>
    <path d="M285.686,43.265 L285.686,43.265 L320.043,36.69 C321.41,36.428 322.731,37.325 322.993,38.693 C323.255,40.061 322.358,41.382 320.99,41.643 L320.99,41.643 L286.634,48.218 C285.266,48.48 283.945,47.583 283.683,46.215 C283.422,44.847 284.318,43.526 285.686,43.265 z" fill="#000000" id="path1008"/>
    <path d="M451.434,146.477 L451.434,146.477 L485.79,139.903 C487.158,139.641 488.479,140.538 488.741,141.905 C489.003,143.273 488.106,144.594 486.738,144.856 L486.738,144.856 L452.382,151.43 C451.014,151.692 449.693,150.796 449.431,149.428 C449.169,148.06 450.066,146.739 451.434,146.477 z" fill="#000000" id="path1012"/>
    <path d="M366.661,300.208 L366.661,300.208 L402.782,292.858 C404.146,292.58 405.478,293.462 405.755,294.826 C406.033,296.191 405.152,297.522 403.787,297.8 L403.787,297.8 L367.666,305.15 C366.302,305.428 364.97,304.547 364.693,303.182 C364.415,301.818 365.296,300.486 366.661,300.208 z" fill="#000000" id="path1016"/>
    <path d="M489.171,143.608 L489.171,143.608 L405.499,295.352 C404.827,296.571 403.293,297.015 402.073,296.342 C400.854,295.67 400.41,294.136 401.083,292.916 L401.083,292.916 L484.755,141.173 C485.427,139.953 486.961,139.51 488.18,140.182 C489.4,140.855 489.843,142.389 489.171,143.608 z" fill="#000000" id="path1020"/>
    <path d="M322.107,37.152 L322.107,37.152 L488.156,140.064 C489.34,140.797 489.705,142.352 488.971,143.535 C488.238,144.719 486.683,145.084 485.5,144.35 L485.5,144.35 L319.45,41.439 C318.266,40.705 317.901,39.151 318.635,37.967 C319.369,36.783 320.923,36.418 322.107,37.152 z" fill="#000000" id="path1024"/>
    <path d="M320.47,36.628 L320.47,36.628 C333.269,34.275 346.31,31.872 360.666,31.872 L360.666,31.872 C376.222,31.872 393.256,34.689 413.344,43.292 L413.344,43.292 C451.69,59.713 501.628,97.477 515.739,117.584 L515.739,117.584 C522.026,126.543 522.06,133.533 515.742,137.967 L515.742,137.967 C509.057,142.658 495.699,143.586 483.663,144.506 C482.274,144.612 481.063,143.572 480.956,142.183 C480.85,140.795 481.89,139.583 483.279,139.477 L483.279,139.477 C496.097,138.497 507.593,137.525 512.845,133.839 L512.845,133.839 C515.701,131.835 517.279,128.558 511.611,120.481 L511.611,120.481 C498.213,101.391 449.174,64.121 411.359,47.928 L411.359,47.928 C391.904,39.596 375.545,36.915 360.666,36.915 L360.666,36.915 C346.837,36.915 334.231,39.226 321.382,41.588 C320.012,41.84 318.697,40.934 318.446,39.564 C318.194,38.194 319.1,36.88 320.47,36.628 z" fill="#000000" id="path1028"/>
    <path d="M519.421,133.93 L519.421,133.93 L437.427,283.113 C436.757,284.333 435.224,284.779 434.003,284.108 C432.783,283.437 432.337,281.904 433.008,280.684 L433.008,280.684 L515.002,131.501 C515.673,130.281 517.206,129.835 518.426,130.506 C519.647,131.177 520.092,132.71 519.421,133.93 z" fill="#000000" id="path1032"/>
    <path d="M286.587,49.386 C286.558,49.386 286.53,49.39 286.502,49.398 C286.419,49.421 286.35,49.479 286.311,49.557 L214.959,192.676 C214.891,192.812 214.933,192.977 215.057,193.065 L365.085,298.98 C365.138,299.017 365.2,299.036 365.263,299.036 C365.311,299.036 365.36,299.025 365.404,299.002 C365.459,298.973 365.503,298.93 365.532,298.878 L365.531,298.879 L449.142,150.367 C449.168,150.321 449.182,150.269 449.182,150.216 L449.182,150.215 C449.182,150.108 449.127,150.009 449.036,149.953 L286.749,49.432 C286.7,49.402 286.643,49.386 286.587,49.386 z" fill="#6E6E72" id="path1036"/>
    <path d="M320.066,41.512 C320.047,41.512 320.027,41.514 320.008,41.517 L292.037,46.871 L292.032,46.872 C292.001,46.877 291.971,46.888 291.942,46.904 L291.944,46.905 C291.84,46.963 291.776,47.078 291.788,47.202 C291.799,47.32 291.875,47.417 291.979,47.459 L291.971,47.46 L452.022,146.596 C452.072,146.627 452.128,146.642 452.185,146.642 C452.206,146.642 452.227,146.64 452.247,146.636 L452.242,146.637 L480.142,141.298 C480.287,141.27 480.392,141.143 480.392,140.995 L480.392,140.995 C480.392,140.888 480.337,140.789 480.247,140.733 L320.228,41.558 C320.179,41.528 320.122,41.512 320.065,41.512 z" fill="#6E6E72" id="path1040"/>
    <path d="M482.25,145.407 C482.231,145.407 482.212,145.409 482.192,145.412 L454.111,150.786 L454.112,150.787 L454.104,150.788 C454.02,150.805 453.945,150.858 453.901,150.937 L370.402,299.25 C370.349,299.346 370.35,299.462 370.404,299.557 C370.452,299.638 370.533,299.692 370.624,299.706 L370.617,299.707 C370.634,299.709 370.652,299.711 370.67,299.711 C370.692,299.711 370.714,299.709 370.735,299.704 L370.73,299.705 L370.73,299.704 L370.735,299.705 C370.736,299.704 370.736,299.704 370.736,299.704 L370.732,299.705 L400.958,293.621 L400.96,293.622 C401.069,293.601 401.16,293.524 401.196,293.418 C401.237,293.298 401.289,293.181 401.352,293.066 L482.52,145.864 C482.577,145.759 482.57,145.631 482.499,145.534 C482.441,145.453 482.348,145.407 482.25,145.407 z" fill="#6E6E72" id="path1044"/>
    <path d="M360.665,36.607 C348.999,36.607 338.201,38.249 327.416,40.177 C327.259,40.205 327.15,40.349 327.164,40.508 C327.175,40.631 327.257,40.732 327.368,40.771 L327.361,40.772 L486.609,139.468 C486.658,139.499 486.715,139.514 486.771,139.514 C486.784,139.514 486.796,139.514 486.809,139.512 L486.801,139.513 C498.144,138.606 508.167,137.498 513.022,134.092 C516.084,131.942 517.574,128.443 511.863,120.305 C498.422,101.152 449.327,63.852 411.48,47.645 C391.987,39.297 375.586,36.607 360.665,36.607 z" fill="#6E6E72" id="path1048"/>
    <path d="M509.917,140.617 C509.895,140.617 509.875,140.623 509.857,140.633 L509.848,140.634 C504.049,142.541 496.439,143.364 488.882,143.981 C488.82,143.986 488.772,144.038 488.772,144.1 L488.763,144.101 L407.23,291.965 C407.21,292.001 407.211,292.046 407.232,292.082 C407.254,292.119 407.293,292.141 407.335,292.141 L407.358,292.139 L429.212,287.741 C429.248,287.734 429.277,287.711 429.293,287.681 L429.293,287.682 L510.03,140.794 C510.05,140.757 510.049,140.712 510.028,140.676 C510.018,140.659 510.004,140.645 509.988,140.635 L509.98,140.636 C509.961,140.624 509.94,140.617 509.917,140.617 z" fill="#6E6E72" id="path1052"/>
    <path d="M367.437,130.041 Q366.299,129.803 365.259,129.708 Q363.951,129.602 362.97,129.651 L362.457,133.364 Q363.608,133.433 364.791,133.555 Q365.921,133.694 367.075,133.94 Q367.116,133.949 367.158,133.957 Q368.343,134.239 369.534,134.718 Q370.727,135.198 371.916,135.999 Q373.216,136.874 374.045,137.986 Q374.89,139.076 375.239,140.288 Q375.589,141.501 375.46,142.75 Q375.309,143.985 374.635,145.125 Q374.044,146.125 373.225,146.839 Q372.408,147.552 371.271,147.981 Q370.158,148.425 368.729,148.584 Q367.315,148.72 365.497,148.575 Q362.191,148.31 359.552,148.464 Q356.943,148.633 354.747,149.532 Q352.592,150.42 350.761,152.175 Q348.948,153.903 347.261,156.778 L346.378,158.283 L365.52,171.822 L367.52,168.448 L352.449,157.848 Q353.651,156.007 355.071,154.963 Q356.472,153.901 358.116,153.395 Q359.764,152.888 361.649,152.801 Q363.503,152.722 365.599,152.806 Q367.617,152.931 369.552,152.896 Q371.457,152.87 373.186,152.426 Q374.898,151.965 376.364,150.941 Q377.796,149.923 378.888,148.08 Q380.078,146.074 380.33,143.987 Q380.583,141.902 379.952,139.91 Q379.323,137.921 377.867,136.097 Q376.415,134.279 374.22,132.809 Q372.725,131.807 371.142,131.168 Q369.585,130.545 368.086,130.186 Q367.758,130.108 367.438,130.041 z M391.083,144.76 L372.179,176.532 L376.469,179.566 L391.229,154.817 L392.089,190.615 L396.524,193.751 L415.994,161.455 L411.456,158.414 L396.394,183.458 L395.495,147.717 L395.458,147.726 L395.473,147.702 z M322.905,168.007 Q323.881,168.247 324.864,168.964 Q326.201,169.94 327.047,171.166 Q327.888,172.358 328.057,174.054 Q328.227,175.752 327.598,178.022 Q326.969,180.291 325.397,183.374 Q324.151,183.863 322.982,183.926 Q321.847,183.981 320.798,183.745 Q320.758,183.735 320.718,183.725 Q319.727,183.468 318.808,182.999 Q317.867,182.489 317.025,181.861 Q315.706,180.876 315.093,179.716 Q314.481,178.558 314.415,177.297 Q314.349,176.037 314.764,174.687 Q315.185,173.374 315.95,172.06 Q316.728,170.722 317.761,169.731 Q318.763,168.746 319.93,168.263 Q321.1,167.779 322.371,167.911 Q322.638,167.941 322.905,168.007 z M296.29,145.238 Q296.161,145.208 296.033,145.18 Q294.961,144.961 294.071,144.998 L293.832,148.496 Q294.653,148.629 295.451,148.807 Q295.517,148.822 295.583,148.837 Q296.316,149.01 297.055,149.293 Q297.844,149.588 298.692,150.019 Q299.509,150.459 300.399,151.109 Q301.679,152.044 302.622,153.139 Q303.546,154.222 304.008,155.439 Q304.464,156.622 304.371,157.938 Q304.259,159.24 303.481,160.588 Q302.703,161.934 301.701,162.611 Q300.714,163.265 299.588,163.343 Q298.813,163.408 297.99,163.204 Q297.64,163.117 297.281,162.982 Q296.1,162.545 294.925,161.672 L291.434,159.079 L289.599,162.272 L293.082,164.874 Q294.447,165.893 295.432,167.1 Q296.432,168.287 296.908,169.619 Q297.366,170.938 297.241,172.356 Q297.128,173.752 296.291,175.202 Q295.504,176.564 294.419,177.193 Q293.349,177.8 292.053,177.793 Q291.345,177.785 290.582,177.587 Q289.986,177.432 289.357,177.161 Q287.946,176.558 286.498,175.457 Q284.617,174.026 283.409,172.481 Q282.222,170.954 281.294,169.314 L278.63,171.089 Q278.994,172.053 279.654,173.117 Q280.308,174.147 281.157,175.171 Q282.008,176.197 282.999,177.173 Q284.003,178.13 285.047,178.928 Q287.332,180.676 289.519,181.467 Q290.071,181.667 290.606,181.808 Q292.201,182.228 293.649,182.128 Q295.57,181.98 297.17,180.95 Q298.752,179.904 299.848,178.011 Q301.365,175.389 301.079,172.456 Q300.812,169.543 298.796,166.78 L298.797,166.78 Q298.865,166.798 298.933,166.815 Q301.479,167.452 303.58,166.586 Q305.725,165.68 307.121,163.267 Q308.223,161.362 308.472,159.335 Q308.727,157.345 308.157,155.385 Q307.587,153.427 306.209,151.577 Q304.841,149.767 302.719,148.227 Q301.728,147.508 300.573,146.889 Q299.44,146.285 298.272,145.842 Q297.26,145.464 296.29,145.238 z M323.191,164.079 Q322.977,164.027 322.764,163.986 Q320.513,163.528 318.506,164.038 Q316.504,164.546 314.838,165.899 Q313.189,167.227 312.079,169.139 Q310.893,171.182 310.429,173.347 Q309.964,175.512 310.265,177.581 Q310.559,179.615 311.64,181.476 Q312.717,183.304 314.609,184.724 Q316.591,186.211 318.851,186.802 Q318.87,186.807 318.89,186.812 Q318.905,186.816 318.92,186.82 Q321.161,187.407 323.403,186.879 L323.404,186.879 Q321.575,189.854 319.749,191.635 Q317.939,193.39 316.174,194.08 Q314.434,194.784 312.767,194.481 Q312.496,194.432 312.23,194.36 Q310.858,193.991 309.595,193.03 Q308.11,191.9 307.013,190.65 Q305.918,189.403 305.144,188.05 L302.731,190.545 Q303.114,191.251 303.581,191.958 Q304.029,192.651 304.673,193.399 Q305.299,194.132 306.161,194.952 Q307.017,195.735 308.204,196.642 Q310.074,198.073 312.059,198.613 Q312.644,198.772 313.239,198.854 Q315.831,199.223 318.397,198.212 Q320.973,197.198 323.426,194.855 Q325.853,192.514 327.934,188.967 Q332.648,180.932 332.468,175.287 Q332.296,169.694 327.323,166.085 Q325.25,164.58 323.191,164.08 z M348.387,186.575 Q349.321,186.814 350.205,187.459 Q351.728,188.57 352.352,190.336 Q352.991,192.081 352.808,194.342 Q352.625,196.604 351.64,199.294 Q350.633,201.967 348.887,204.91 Q347.156,207.826 345.371,209.806 Q343.61,211.8 341.857,212.808 Q340.122,213.792 338.464,213.78 Q337.858,213.768 337.272,213.605 Q336.271,213.326 335.329,212.609 Q333.858,211.49 333.268,209.8 Q332.666,208.136 332.868,205.973 Q333.076,203.85 334.048,201.292 Q335.02,198.734 336.725,195.843 Q338.445,192.925 340.208,190.846 Q341.974,188.764 343.704,187.659 Q345.416,186.537 347.066,186.44 Q347.739,186.409 348.387,186.575 z M348.44,182.305 Q347.781,182.139 347.117,182.078 Q344.581,181.858 342.062,183.042 Q339.585,184.214 337.197,186.707 Q334.815,189.194 332.678,192.826 Q330.532,196.475 329.461,199.855 Q328.403,203.211 328.475,206.158 Q328.526,209.093 329.738,211.581 Q330.945,214.038 333.381,215.901 Q335.319,217.383 337.299,217.941 Q337.861,218.1 338.427,218.184 Q340.981,218.587 343.502,217.575 Q346.01,216.544 348.432,214.119 Q350.846,211.711 353.047,208.011 Q355.239,204.328 356.34,200.822 Q357.441,197.315 357.361,194.194 Q357.288,191.116 356.005,188.54 Q354.725,185.971 352.178,184.123 Q350.329,182.781 348.44,182.305 z M377.666,210.613 L367.88,226.899 L357.902,219.395 z M379.842,204.87 L352.89,216.817 L351.393,219.329 L365.857,230.266 L361.819,236.985 L366.09,240.25 L370.149,233.512 L374.472,236.781 L376.517,233.394 L372.183,230.135 L385.101,208.689 z" fill="#B6B6B6" id="path1056"/>
    <path d="M352.441,-0 L352.441,-0 L352.441,-0 L352.441,-0 L352.441,-0 L352.441,-0 L352.441,-0 L352.441,-0 L352.441,-0 L352.441,-0 M351.422,3.938 L351.422,3.938 L351.422,3.938 L351.422,3.938 L351.422,3.938 L351.422,3.938 L351.422,3.938 z" fill="#000000" id="path1060"/>
    <path d="M437.907,271.978 L436.467,274.559 L433.924,279.77 L431.36,282.859 Q430.246,283.94 428.475,284.939 Q422.855,287.838 420.686,288.312 Q415.126,290.075 403.497,292.691 Q402.48,293.226 402.22,293.704 Q401.61,295.564 402.107,296.221 Q403.167,297.778 404.79,297.54 Q411.83,296.063 420.481,293.656 Q426.987,291.63 431.31,289.129 Q436.469,285.965 438.049,282.014 Q439.993,276.748 437.907,271.978 z" fill="#000000" id="path1064"/>
  </g>
</svg>
