<?xml version="1.0" encoding="UTF-8"?>
<svg id="Layer_4" data-name="Layer 4" xmlns="http://www.w3.org/2000/svg" viewBox="0 0 226.64 66.36">
  <defs>
    <style>
      .cls-1 {
        fill: none;
      }

      .cls-2 {
        fill: #72808a;
      }

      .cls-3 {
        fill: #70aeb9;
      }
    </style>
  </defs>
  <g>
    <path class="cls-2" d="M69.04,16.17l-2.8,8.33h1.13l.74-2.29h3.23l.79,2.29h1.21l-2.9-8.33h-1.41ZM69.74,17.18h.03s-.03,0-.03,0h0ZM68.44,21.21l1.25-3.87,1.31,3.87h-2.56Z"/>
    <path class="cls-2" d="M88.45,22.21l.79,2.29h1.21l-2.9-8.33h-1.41l-2.8,8.33h1.13l.74-2.29h3.23ZM86.84,17.18h.03s-.03,0-.03,0h0ZM86.79,17.34l1.31,3.87h-2.56l1.26-3.87Z"/>
    <polygon class="cls-2" points="107.28 23.5 103 23.5 103 20.66 106.38 20.66 106.38 19.64 103 19.64 103 17.25 107.28 17.26 107.28 16.24 101.84 16.24 101.84 24.51 107.28 24.51 107.28 23.5"/>
    <rect class="cls-2" x="121.56" y="16.24" width="1.16" height="8.26"/>
    <polygon class="cls-2" points="114.78 22.97 116.82 17.57 116.91 18.48 117.49 24.51 118.58 24.51 117.77 16.25 116.18 16.24 114.28 21.39 112.37 16.24 110.79 16.25 109.97 24.51 111.06 24.51 111.64 18.48 111.73 17.57 113.77 22.97 114.78 22.97"/>
    <path class="cls-2" d="M98.02,23.89c.46-.44.69-1.13.69-2.09v-2.92c0-.91-.23-1.58-.68-2.02-.45-.44-1.11-.62-1.92-.62h-3.46v8.26h3.44c.81,0,1.47-.17,1.93-.61ZM93.81,23.51v-6.27h2.2c1.1.02,1.52.49,1.54,1.75v2.78c-.03,1.28-.37,1.72-1.53,1.74h-2.21Z"/>
    <polygon class="cls-2" points="22.32 19.65 18.25 19.65 18.25 16.24 17.09 16.24 17.09 24.51 18.25 24.51 18.25 20.66 22.32 20.66 22.32 24.51 23.48 24.51 23.48 16.24 22.32 16.24 22.32 19.65"/>
    <polygon class="cls-2" points="29.04 23 29 23.15 28.97 23.01 26.81 16.24 25.6 16.24 28.37 24.51 29.55 24.51 32.39 16.24 31.28 16.24 29.04 23"/>
    <polygon class="cls-2" points="53.92 23 53.89 23.15 53.86 23.01 51.7 16.24 50.48 16.24 53.25 24.51 54.43 24.51 57.28 16.24 56.17 16.24 53.92 23"/>
    <path class="cls-2" d="M62.73,20.05l-1.85-.54c-.56-.17-.93-.25-.92-.71v-.67c.02-.47.25-.85.89-.87h3.39v-.64c0-.31-.32-.37-.72-.37h-2.6c-.77,0-1.29.25-1.58.61-.3.36-.5.71-.5,1.27v.81c-.01,1.05.59,1.36,1.75,1.65l1.92.56c.57.17.85.29.85.76v.35c0,.74-.41,1.25-1.14,1.25h-3.38v.64c0,.27.23.37.48.37h2.9c.82,0,1.32-.23,1.62-.51.3-.28.65-.82.65-1.71v-.55c.01-1.07-.71-1.4-1.75-1.69Z"/>
    <polygon class="cls-2" points="34.51 24.51 39.95 24.51 39.95 23.5 35.67 23.5 35.67 20.66 39.05 20.66 39.05 19.64 35.67 19.64 35.67 17.25 39.95 17.26 39.95 16.24 34.51 16.24 34.51 24.51"/>
    <path class="cls-2" d="M46.65,21.21c1.04,0,1.84-.6,1.84-1.8v-1.32c0-.6-.15-1.08-.5-1.39-.35-.31-.86-.45-1.55-.45h-3.77v8.26h1.16v-3.3h1.39l2.24,3.3h1.38l-2.29-3.3h.09ZM43.83,20.23v-2.98h2.28c.96.03,1.21.13,1.23.91v1.05c-.03.83-.18.98-1.12,1.01h-2.39Z"/>
    <polygon class="cls-2" points="0 24.51 5.44 24.51 5.44 23.5 1.16 23.5 1.16 20.66 4.54 20.66 4.54 19.64 1.16 19.64 1.16 17.25 5.44 17.26 5.44 16.24 0 16.24 0 24.51"/>
    <path class="cls-2" d="M12.14,21.21c1.04,0,1.84-.6,1.84-1.8v-1.32c0-.6-.15-1.08-.5-1.39-.35-.31-.86-.45-1.55-.45h-3.77v8.26h1.16v-3.3h1.39l2.24,3.3h1.38l-2.29-3.3h.09ZM9.32,20.23v-2.98h2.28c.96.03,1.21.13,1.23.91v1.05c-.03.83-.18.98-1.12,1.01h-2.39Z"/>
    <polygon class="cls-2" points="80.53 24.51 81.81 24.51 78.86 20.18 81.72 16.24 80.34 16.24 77.78 19.76 76.8 19.76 76.8 16.24 75.63 16.24 75.63 24.51 76.8 24.51 76.8 20.78 77.85 20.78 80.53 24.51"/>
  </g>
  <g>
    <path class="cls-2" d="M142.83,22.21l.79,2.29h1.21l-2.9-8.33h-1.41l-2.8,8.33h1.13l.74-2.29h3.23ZM141.22,17.19h.03s-.03,0-.03,0h0ZM141.17,17.34l1.31,3.87h-2.56l1.26-3.87Z"/>
    <path class="cls-2" d="M134.34,22.21l.8,2.29h1.21l-2.9-8.33h-1.41l-2.8,8.33h1.13l.74-2.29h3.23ZM132.73,17.19h.03s-.03,0-.03,0h0ZM132.69,17.34l1.31,3.87h-2.56l1.26-3.87Z"/>
    <path class="cls-2" d="M178.77,20.04l-1.85-.54c-.56-.17-.93-.25-.92-.71v-.67c.02-.47.25-.85.89-.87h3.39v-.64c0-.31-.32-.37-.72-.37h-2.6c-.77,0-1.29.25-1.59.61-.3.36-.5.71-.5,1.27v.81c-.01,1.05.59,1.36,1.75,1.65l1.92.55c.57.17.85.29.85.76v.35c0,.74-.41,1.26-1.15,1.26h-3.38v.64c0,.27.23.37.48.37h2.9c.82,0,1.32-.23,1.62-.51.3-.28.64-.82.64-1.71v-.55c.01-1.06-.7-1.4-1.75-1.69Z"/>
    <path class="cls-2" d="M170.74,22.13c-.01.91-.41,1.47-1.29,1.48h-1.34c-.89,0-1.28-.57-1.29-1.48v-5.88h-1.16v5.93c0,.84.24,1.47.69,1.88.44.41,1.07.59,1.8.59h1.24c.76,0,1.39-.2,1.82-.62.43-.42.66-1.06.66-1.9v-5.88h-1.13v5.88Z"/>
    <polygon class="cls-2" points="161.2 19.65 157.12 19.65 157.12 16.24 155.96 16.24 155.96 24.51 157.12 24.51 157.12 20.66 161.2 20.66 161.2 24.51 162.36 24.51 162.36 16.24 161.2 16.24 161.2 19.65"/>
    <path class="cls-2" d="M151.01,21.2c1.04,0,1.84-.6,1.84-1.8v-1.32c0-.6-.15-1.08-.5-1.39-.35-.31-.86-.45-1.54-.45h-3.77v8.26h1.16v-3.3h1.39l2.24,3.3h1.38l-2.29-3.3h.09ZM148.2,20.23v-2.98h2.28c.96.03,1.21.13,1.23.91v1.05c-.03.84-.19.98-1.12,1.01h-2.39Z"/>
  </g>
  <g>
    <path class="cls-3" d="M163.16,55.83c-2.31,0-4.19,1.88-4.19,4.19s1.88,4.19,4.19,4.19,4.19-1.88,4.19-4.19-1.87-4.19-4.19-4.19Z"/>
    <path class="cls-3" d="M180.72,34.83c-5.19,0-9.4,4.21-9.4,9.4s4.21,9.4,9.4,9.4,9.4-4.21,9.4-9.4-4.21-9.4-9.4-9.4Z"/>
    <path class="cls-3" d="M207.63,4.32c-8.52,0-15.42,6.9-15.42,15.42s6.9,15.42,15.42,15.42c8.52,0,15.42-6.9,15.42-15.42,0-8.52-6.9-15.42-15.42-15.42Z"/>
  </g>
  <g>
    <path class="cls-2" d="M136.75,36.41l.56,1.61h.85l-2.03-5.83h-.99l-1.96,5.83h.79l.52-1.61h2.26ZM135.62,32.89h.02s-.02,0-.02,0h0ZM135.59,32.99l.91,2.71h-1.79l.88-2.71Z"/>
    <path class="cls-2" d="M130.81,36.41l.56,1.61h.85l-2.03-5.83h-.99l-1.96,5.83h.79l.52-1.61h2.26ZM129.68,32.89h.02s-.02,0-.02,0h0ZM129.65,32.99l.91,2.71h-1.79l.88-2.71Z"/>
    <path class="cls-2" d="M161.91,34.89l-1.3-.38c-.39-.12-.65-.18-.65-.5v-.47c.01-.33.18-.6.62-.61h2.37v-.45c0-.22-.22-.26-.5-.26h-1.82c-.54,0-.9.17-1.11.43-.21.25-.35.5-.35.89v.57c0,.73.41.95,1.22,1.16l1.34.39c.4.12.59.2.59.53v.24c0,.51-.29.88-.8.88h-2.36v.45c0,.19.16.26.34.26h2.03c.57,0,.92-.16,1.14-.36.21-.2.45-.57.45-1.2v-.38c0-.75-.49-.98-1.22-1.18Z"/>
    <path class="cls-2" d="M156.29,36.34c0,.64-.29,1.03-.91,1.03h-.93c-.62,0-.9-.4-.91-1.03v-4.12h-.81v4.15c0,.59.17,1.03.48,1.32.31.29.75.42,1.26.42h.87c.54,0,.97-.14,1.27-.44.3-.3.46-.74.46-1.33v-4.12h-.79v4.12Z"/>
    <polygon class="cls-2" points="149.61 34.61 146.76 34.61 146.76 32.23 145.94 32.23 145.94 38.01 146.76 38.01 146.76 35.32 149.61 35.32 149.61 38.01 150.42 38.01 150.42 32.23 149.61 32.23 149.61 34.61"/>
    <path class="cls-2" d="M142.48,35.7c.73,0,1.29-.42,1.29-1.26v-.93c0-.42-.11-.75-.35-.97-.24-.22-.6-.31-1.08-.31h-2.64v5.78h.81v-2.31h.97l1.57,2.31h.97l-1.6-2.31h.06ZM140.51,35.02v-2.08h1.59c.67.02.84.09.86.64v.74c-.02.58-.13.69-.78.71h-1.67Z"/>
  </g>
  <g>
    <path class="cls-2" d="M84.43,32.18l-1.96,5.83h.79l.52-1.61h2.26l.56,1.61h.85l-2.03-5.83h-.99ZM84.92,32.88h.02s-.02,0-.02,0h0ZM84.01,35.7l.88-2.71.92,2.71h-1.79Z"/>
    <path class="cls-2" d="M97.64,36.4l.56,1.61h.85l-2.03-5.83h-.99l-1.96,5.83h.79l.52-1.61h2.26ZM96.51,32.88h.02s-.02,0-.02,0h0ZM96.48,32.99l.91,2.71h-1.79l.88-2.71Z"/>
    <polygon class="cls-2" points="110.91 37.3 107.92 37.3 107.92 35.32 110.28 35.32 110.28 34.6 107.92 34.6 107.92 32.93 110.91 32.93 110.91 32.23 107.1 32.23 107.1 38.01 110.91 38.01 110.91 37.3"/>
    <polygon class="cls-2" points="115.98 36.93 117.4 33.15 117.47 33.79 117.87 38.01 118.64 38.01 118.07 32.23 116.95 32.23 115.62 35.83 114.29 32.23 113.18 32.23 112.61 38.01 113.38 38.01 113.78 33.79 113.84 33.15 115.27 36.93 115.98 36.93"/>
    <path class="cls-2" d="M104.43,37.58c.32-.31.48-.79.48-1.46v-2.04c0-.64-.16-1.11-.48-1.41-.32-.3-.78-.43-1.34-.43h-2.42v5.78h2.41c.57,0,1.03-.12,1.35-.43ZM101.49,37.31v-4.39h1.54c.77.02,1.06.34,1.08,1.22v1.95c-.02.9-.26,1.2-1.07,1.22h-1.55Z"/>
    <path class="cls-2" d="M89.55,33.82c0-.51.29-.88.8-.88h2.36v-.45c0-.19-.16-.26-.34-.26h-2.03c-.57,0-.92.16-1.14.36-.21.2-.45.57-.45,1.2v2.67c0,.63.24,1,.45,1.2.21.2.56.36,1.14.36h2.03c.18,0,.34-.07.34-.26v-.45h-2.36c-.52,0-.8-.36-.8-.88v-2.6Z"/>
    <polygon class="cls-2" points="123.45 32.22 122 34.74 120.56 32.22 119.66 32.22 121.55 35.47 121.55 38.01 122.37 38.01 122.37 35.47 124.29 32.22 123.45 32.22"/>
  </g>
  <g>
    <polygon class="cls-2" points="66.82 37.3 63.82 37.3 63.82 35.32 66.19 35.32 66.19 34.6 63.82 34.6 63.82 32.93 66.82 32.93 66.82 32.23 63.01 32.23 63.01 38.01 66.82 38.01 66.82 37.3"/>
    <path class="cls-2" d="M77.31,34.89l-1.3-.38c-.39-.12-.65-.18-.65-.5v-.47c.02-.33.18-.6.62-.61h2.37v-.45c0-.22-.22-.26-.5-.26h-1.82c-.54,0-.9.18-1.11.43-.21.25-.35.5-.35.89v.57c0,.73.41.96,1.22,1.16l1.34.39c.4.12.59.2.59.53v.24c0,.52-.29.88-.8.88h-2.36v.45c0,.19.16.26.34.26h2.03c.57,0,.92-.16,1.14-.36.21-.2.45-.57.45-1.2v-.38c0-.75-.49-.98-1.22-1.18Z"/>
    <path class="cls-2" d="M71.48,34.89l-1.3-.38c-.39-.12-.65-.18-.65-.5v-.47c.02-.33.18-.6.62-.61h2.37v-.45c0-.22-.22-.26-.5-.26h-1.82c-.54,0-.9.18-1.11.43-.21.25-.35.5-.35.89v.57c0,.73.41.96,1.22,1.16l1.34.39c.4.12.59.2.59.53v.24c0,.52-.29.88-.8.88h-2.36v.45c0,.19.16.26.34.26h2.03c.57,0,.92-.16,1.14-.36.21-.2.45-.57.45-1.2v-.38c0-.75-.49-.98-1.22-1.18Z"/>
    <path class="cls-2" d="M49.94,34.89l-1.3-.38c-.39-.12-.65-.18-.65-.5v-.47c.01-.33.18-.6.62-.61h2.37v-.45c0-.22-.22-.26-.5-.26h-1.82c-.54,0-.9.18-1.11.43-.21.25-.35.5-.35.89v.57c0,.73.41.96,1.22,1.16l1.34.39c.4.12.59.2.59.53v.24c0,.52-.29.88-.8.88h-2.36v.45c0,.19.16.26.34.26h2.03c.57,0,.92-.16,1.14-.36.21-.2.45-.57.45-1.2v-.38c0-.75-.49-.98-1.22-1.18Z"/>
    <path class="cls-2" d="M44.42,36.34c-.01.64-.29,1.03-.91,1.03h-.93c-.62,0-.9-.4-.91-1.03v-4.12h-.81v4.15c0,.59.17,1.03.48,1.32.31.29.75.42,1.26.42h.87c.54,0,.97-.14,1.27-.44.3-.3.46-.75.46-1.33v-4.12h-.79v4.12Z"/>
    <path class="cls-2" d="M38.16,35.02c.2-.08.34-.2.45-.36.13-.21.18-.48.18-.83v-.43c0-.27-.09-.57-.3-.8-.2-.23-.52-.39-.95-.38h-2.78v5.79h2.68c.38,0,.73-.08,1-.3.26-.22.42-.57.42-1.07v-.6c0-.47-.23-.87-.7-1.02ZM35.57,32.91h1.77c.27,0,.43.06.53.17.1.1.15.27.15.5v.37c0,.3-.07.48-.17.59-.1.1-.26.15-.49.15h-1.79v-1.78ZM38.06,36.58c0,.31-.05.49-.15.59-.09.1-.25.15-.5.15h-1.84v-1.89h1.79c.26,0,.43.05.54.14.1.1.16.26.16.54v.46Z"/>
    <polygon class="cls-2" points="59.81 36.6 57.18 32.22 56.35 32.22 56.35 38.01 57.07 38.01 57.07 33.48 59.82 38.01 60.53 38.01 60.53 32.22 59.81 32.22 59.81 36.6"/>
    <rect class="cls-2" x="53.3" y="32.22" width=".81" height="5.79"/>
  </g>
  <polyline class="cls-1" points="226.64 0 226.64 66.36 4.62 66.36"/>
  <polyline class="cls-1" points="226.64 0 226.64 66.36 4.62 66.36"/>
</svg>